<?xml version="1.0" encoding="utf-8"?>
<!-- Generator: Adobe Illustrator 19.2.1, SVG Export Plug-In . SVG Version: 6.00 Build 0)  -->
<svg version="1.1" id="Warstwa_1" xmlns="http://www.w3.org/2000/svg" xmlns:xlink="http://www.w3.org/1999/xlink" x="0px" y="0px"
	 viewBox="0 0 30 30" style="enable-background:new 0 0 30 30;" xml:space="preserve">
<style type="text/css">
	.st0{fill:#CCCCCC;}
</style>
<g>
	<path class="st0" d="M12,29.7v-7.2c0-0.5,0-1.1,0.1-1.7c0.1-0.6,0.2-1.1,0.4-1.6c-0.4,0.4-0.8,0.7-1.2,1c-0.4,0.3-0.9,0.6-1.4,0.9
		l-6,3.5l-3-4.9l6-3.5c0.5-0.3,1-0.6,1.6-0.8c0.5-0.2,1.1-0.4,1.6-0.5c-0.6-0.1-1.1-0.3-1.6-0.5c-0.5-0.2-1-0.5-1.6-0.8l-6-3.6l3-5
		l6,3.6c0.5,0.3,1,0.6,1.4,0.9c0.5,0.3,0.9,0.7,1.2,1.1c-0.3-0.9-0.5-2-0.5-3.2V0.3h6v7.2c0,0.6,0,1.1-0.1,1.7
		c-0.1,0.6-0.2,1.1-0.4,1.6c0.4-0.4,0.8-0.7,1.2-1.1c0.4-0.3,0.9-0.6,1.4-0.9l6-3.6l3,5l-6,3.5c-0.6,0.3-1.1,0.6-1.6,0.8
		c-0.5,0.2-1.1,0.4-1.6,0.5c0.6,0.1,1.1,0.3,1.6,0.5c0.5,0.2,1.1,0.5,1.6,0.8l6,3.6l-3,4.9l-6-3.6c-0.5-0.3-1-0.6-1.4-0.9
		c-0.4-0.3-0.9-0.7-1.2-1.1c0.4,1,0.5,2,0.5,3.2v7.2H12z"/>
</g>
</svg>
